<svg width="1750" height="606" viewBox="0 0 1750 606" fill="none" xmlns="http://www.w3.org/2000/svg">
<ellipse cx="189" cy="184.5" rx="80" ry="81.5" fill="#58A6FF"/>
<ellipse cx="423.5" cy="184.5" rx="80.5" ry="81.5" fill="#58A6FF"/>
<ellipse cx="186.5" cy="420" rx="80.5" ry="81" fill="#58A6FF"/>
<circle cx="423.5" cy="420.5" r="80.5" fill="#58A6FF"/>
<rect x="201" y="410" width="25" height="238" transform="rotate(-180 201 410)" fill="#58A6FF"/>
<rect x="465" y="410" width="25" height="318" transform="rotate(90 465 410)" fill="#58A6FF"/>
<rect x="410.86" y="187" width="25" height="318" transform="rotate(45 410.86 187)" fill="#58A6FF"/>
<rect x="22.5" y="22.5" width="1705" height="561" rx="191.5" stroke="#58A6FF" stroke-width="45"/>
<path d="M661.074 501L560 103H637.225L721.264 434.58H770.736L854.775 103H932L830.926 501H661.074Z" fill="#58A6FF"/>
<path d="M881 501.1L897.618 435.146H1034.02V169.054H965.131L981.749 103.1H1145.37C1198.78 103.1 1239.31 116.746 1266.96 144.037C1294.99 170.95 1309 211.129 1309 264.574V339.626C1309 393.071 1294.99 433.44 1266.96 460.731C1239.31 487.644 1198.78 501.1 1145.37 501.1H881ZM1109.01 432.871H1146.51C1176.81 432.871 1198.97 424.911 1212.98 408.991C1227 393.071 1234.01 370.708 1234.01 341.9V262.3C1234.01 233.113 1227 210.75 1212.98 195.209C1198.97 179.289 1176.81 171.329 1146.51 171.329H1109.01V432.871Z" fill="#58A6FF"/>
<path d="M1489.41 103.1C1516.76 103.1 1541.01 107.84 1562.16 117.322C1583.68 126.438 1600.45 140.296 1612.48 158.894C1624.88 177.127 1631.08 200.101 1631.08 227.816V244.226H1559.97V227.816C1559.97 213.229 1557.05 201.56 1551.22 192.808C1545.75 183.691 1537.73 177.127 1527.15 173.116C1516.58 168.74 1504 166.551 1489.41 166.551C1467.53 166.551 1451.3 170.745 1440.73 179.132C1430.52 187.155 1425.41 198.277 1425.41 212.499C1425.41 221.981 1427.78 230.004 1432.52 236.568C1437.63 243.132 1445.1 248.602 1454.95 252.978C1464.79 257.354 1477.37 261.182 1492.69 264.464L1505.27 267.2C1532.62 273.034 1556.33 280.51 1576.38 289.626C1596.8 298.743 1612.67 310.778 1623.97 325.729C1635.28 340.68 1640.93 359.825 1640.93 383.163C1640.93 406.502 1634.91 427.106 1622.88 444.975C1611.21 462.479 1594.43 476.336 1572.55 486.546C1551.1 496.364 1525.66 501.286 1496.23 501.314V501.35H1168.93V437.829H1496.23V437.862C1520.9 437.828 1539.23 432.907 1551.22 423.095C1563.62 413.249 1569.82 400.668 1569.82 385.352C1569.82 374.777 1566.72 366.207 1560.52 359.643C1554.68 353.079 1545.93 347.791 1534.26 343.78C1522.96 339.404 1509.1 335.392 1492.69 331.745L1480.11 329.011C1453.85 323.176 1431.25 315.882 1412.28 307.13C1393.68 298.014 1379.28 286.162 1369.07 271.576C1359.22 256.989 1354.3 238.026 1354.3 214.688C1354.3 191.349 1359.77 171.475 1370.71 155.065C1382.01 138.29 1397.7 125.527 1417.75 116.775C1438.17 107.658 1462.06 103.1 1489.41 103.1Z" fill="#58A6FF"/>
</svg>
